<svg width="41" height="45" viewBox="0 0 41 45" fill="none" xmlns="http://www.w3.org/2000/svg">
<path d="M41 39.75C39.8667 41.15 38.4833 42.2167 36.85 42.95C35.25 43.6833 33.4833 44.05 31.55 44.05C28.95 44.05 26.6 43.4833 24.5 42.35C22.4 41.25 20 39.2833 17.3 36.45C14.1333 36.05 11.3 35.0333 8.8 33.4C6.33333 31.7667 4.4 29.6667 3 27.1C1.63333 24.5 0.95 21.6333 0.95 18.5C0.95 15.0667 1.76667 11.9833 3.4 9.25C5.06667 6.48333 7.35 4.31667 10.25 2.75C13.1833 1.18333 16.4667 0.399999 20.1 0.399999C23.7333 0.399999 27 1.18333 29.9 2.75C32.8 4.31667 35.0833 6.48333 36.75 9.25C38.4167 11.9833 39.25 15.0667 39.25 18.5C39.25 22.5667 38.1 26.1333 35.8 29.2C33.5333 32.2667 30.5167 34.4 26.75 35.6C27.5833 36.4667 28.3833 37.0833 29.15 37.45C29.95 37.85 30.8 38.05 31.7 38.05C33.8667 38.05 35.7667 37.1833 37.4 35.45L41 39.75ZM9.15 18.5C9.15 20.6667 9.61667 22.6 10.55 24.3C11.5167 26 12.8333 27.3333 14.5 28.3C16.1667 29.2333 18.0333 29.7 20.1 29.7C22.1667 29.7 24.0333 29.2333 25.7 28.3C27.3667 27.3333 28.6667 26 29.6 24.3C30.5667 22.6 31.05 20.6667 31.05 18.5C31.05 16.3333 30.5667 14.4 29.6 12.7C28.6667 11 27.3667 9.68333 25.7 8.75C24.0333 7.78333 22.1667 7.3 20.1 7.3C18.0333 7.3 16.1667 7.78333 14.5 8.75C12.8333 9.68333 11.5167 11 10.55 12.7C9.61667 14.4 9.15 16.3333 9.15 18.5Z" fill="#FFA542"/>
</svg>
